<svg width="105" height="99" viewBox="0 0 105 99" fill="none" xmlns="http://www.w3.org/2000/svg">
<path d="M49.8 48L39.8 41.6C44.8667 31.7333 47.8 23.5333 48.6 17H35L43 0.200012H69.2C69.2 18.8667 62.7333 34.8 49.8 48Z" fill="#F7F7F7"/>
<path d="M9.5 90.375L3.25 86.375C6.41667 80.2083 8.25 75.0833 8.75 71H0.25L5.25 60.5H21.625C21.625 72.1667 17.5833 82.125 9.5 90.375Z" fill="#F7F7F7"/>
<path d="M87.7 98.125L78.95 92.525C83.3833 83.8917 85.95 76.7167 86.65 71H74.75L81.75 56.3H104.675C104.675 72.6333 99.0167 86.575 87.7 98.125Z" fill="#F7F7F7"/>
</svg>
