<svg width="20" height="20" viewBox="0 0 20 20" fill="none" xmlns="http://www.w3.org/2000/svg">
<path d="M10 0C8.02219 0 6.08879 0.58649 4.4443 1.6853C2.79981 2.78412 1.51809 4.3459 0.761209 6.17316C0.00433286 8.00043 -0.1937 10.0111 0.192152 11.9509C0.578004 13.8907 1.53041 15.6725 2.92894 17.0711C4.32746 18.4696 6.10929 19.422 8.0491 19.8078C9.98891 20.1937 11.9996 19.9957 13.8268 19.2388C15.6541 18.4819 17.2159 17.2002 18.3147 15.5557C19.4135 13.9112 20 11.9778 20 10C20 7.34783 18.9464 4.8043 17.0711 2.92893C15.1957 1.05357 12.6522 0 10 0V0ZM10 15C9.83519 15 9.67407 14.9511 9.53703 14.8596C9.39999 14.768 9.29318 14.6378 9.2301 14.4856C9.16703 14.3333 9.15053 14.1657 9.18268 14.0041C9.21484 13.8424 9.2942 13.694 9.41075 13.5774C9.52729 13.4609 9.67578 13.3815 9.83743 13.3493C9.99908 13.3172 10.1666 13.3337 10.3189 13.3968C10.4712 13.4598 10.6013 13.5666 10.6929 13.7037C10.7845 13.8407 10.8333 14.0018 10.8333 14.1667C10.8333 14.3877 10.7455 14.5996 10.5893 14.7559C10.433 14.9122 10.221 15 10 15ZM10.8333 10V10.8333C10.8333 11.0543 10.7455 11.2663 10.5893 11.4226C10.433 11.5789 10.221 11.6667 10 11.6667C9.77899 11.6667 9.56703 11.5789 9.41075 11.4226C9.25447 11.2663 9.16667 11.0543 9.16667 10.8333V10C9.16667 9.55797 9.34226 9.13405 9.65483 8.82149C9.96739 8.50893 10.3913 8.33333 10.8333 8.33333C11.0544 8.33333 11.2663 8.24553 11.4226 8.08925C11.5789 7.93297 11.6667 7.72101 11.6667 7.5C11.6667 7.27899 11.5789 7.06702 11.4226 6.91074C11.2663 6.75446 11.0544 6.66667 10.8333 6.66667H9.16667C8.94566 6.66667 8.73369 6.75446 8.57741 6.91074C8.42113 7.06702 8.33334 7.27899 8.33334 7.5C8.33334 7.72101 8.24554 7.93297 8.08926 8.08925C7.93298 8.24553 7.72102 8.33333 7.5 8.33333C7.27899 8.33333 7.06703 8.24553 6.91075 8.08925C6.75447 7.93297 6.66667 7.72101 6.66667 7.5C6.66667 6.83696 6.93006 6.20107 7.3989 5.73223C7.86774 5.26339 8.50363 5 9.16667 5H10.8333C11.4964 5 12.1323 5.26339 12.6011 5.73223C13.0699 6.20107 13.3333 6.83696 13.3333 7.5C13.3333 8.16304 13.0699 8.79892 12.6011 9.26777C12.1323 9.73661 11.4964 10 10.8333 10Z" fill="#F7F7F7"/>
</svg>
