<svg width="16" height="16" viewBox="0 0 16 16" fill="none" xmlns="http://www.w3.org/2000/svg">
<path fill-rule="evenodd" clip-rule="evenodd" d="M8 16C3.59111 16 0 12.4089 0 8C0 3.59111 3.59111 0 8 0C12.4089 0 16 3.57333 16 8C16 12.4267 12.4089 16 8 16ZM8.88889 1.84889V4.44444C8.88889 4.94222 8.49778 5.33333 8 5.33333C7.50222 5.33333 7.11111 4.94222 7.11111 4.44444V1.84889C4.39111 2.24 2.24 4.39111 1.84889 7.11111H4.44444C4.94222 7.11111 5.33333 7.50222 5.33333 8C5.33333 8.49778 4.94222 8.88889 4.44444 8.88889H1.84889C2.24 11.6089 4.39111 13.76 7.11111 14.1511V11.5556C7.11111 11.0578 7.50222 10.6667 8 10.6667C8.49778 10.6667 8.88889 11.0578 8.88889 11.5556V14.1511C11.6089 13.76 13.76 11.6089 14.1511 8.88889H11.5556C11.0578 8.88889 10.6667 8.49778 10.6667 8C10.6667 7.50222 11.0578 7.11111 11.5556 7.11111H14.1511C13.76 4.39111 11.6089 2.24 8.88889 1.84889Z" fill="#646464"/>
</svg>
