<svg width="10" height="16" viewBox="0 0 10 16" fill="none" xmlns="http://www.w3.org/2000/svg">
<path d="M0.124939 7.13857V8.12625C0.124939 8.8766 0.733271 9.48531 1.484 9.48531H2.21157C2.84155 9.48531 3.34128 10.0166 3.30254 10.6454L3.08571 14.1655C3.02724 15.1164 3.74683 15.9643 4.6992 15.9989C5.6979 16.0346 6.50103 15.2029 6.43989 14.2149L6.22003 10.6454C6.18129 10.0166 6.68102 9.48531 7.311 9.48531H8.03819C8.78892 9.48531 9.39725 8.87698 9.39725 8.12625V7.13857H0.124939V7.13857ZM4.7611 14.9311C4.33086 14.9311 3.98226 14.5825 3.98226 14.1522C3.98226 13.722 4.33086 13.3734 4.7611 13.3734C5.19133 13.3734 5.53993 13.722 5.53993 14.1522C5.53993 14.5825 5.19095 14.9311 4.7611 14.9311Z" fill="#646464"/>
<path d="M8.00363 0L7.83654 1.98714L7.66946 0H2.42991L2.26283 1.98714L2.09574 0H1.71373L1.54665 1.98714L1.37957 0H0L0.363404 6.37913H9.15877L9.5218 0H8.00363Z" fill="#646464"/>
</svg>
