<svg width="14" height="16" viewBox="0 0 14 16" fill="none" xmlns="http://www.w3.org/2000/svg">
<path fill-rule="evenodd" clip-rule="evenodd" d="M12.2974 11.3534C12.3698 11.3512 12.4458 11.371 12.5068 11.41C12.5678 11.4491 12.6144 11.5074 12.6427 11.5741C12.8133 11.9773 13.3924 12.9599 13.6444 13.8833C13.7704 14.3449 13.8344 14.8172 13.6444 15.2473C13.4544 15.6773 12.9817 15.9616 12.3483 16C12.3373 16 12.3254 16 12.3144 16C11.6509 15.9795 11.1558 15.7108 10.9561 15.2756C10.7563 14.8404 10.8322 14.3604 10.9673 13.8946C11.1025 13.4288 11.3162 12.9586 11.5163 12.5476C11.7163 12.1366 11.9058 11.7749 11.969 11.5968C11.9933 11.5285 12.0407 11.464 12.0992 11.4213C12.1578 11.3787 12.2249 11.3555 12.2973 11.3534H12.2974ZM12.3144 12.5702C12.2668 12.6659 12.2174 12.7616 12.1673 12.8645C11.9729 13.264 11.7767 13.7084 11.6636 14.0983C11.5504 14.4883 11.5437 14.8131 11.6183 14.9756C11.692 15.1362 11.8245 15.2575 12.3201 15.2756C12.7788 15.2451 12.9072 15.1229 12.9823 14.953C13.0583 14.781 13.0535 14.4553 12.9483 14.0701C12.8151 13.5819 12.5468 13.0394 12.3144 12.5702Z" fill="#646464"/>
<path fill-rule="evenodd" clip-rule="evenodd" d="M8.04698 4.42441e-05C8.21092 8.04662e-05 8.37399 0.035243 8.52805 0.101919C8.85671 0.244163 9.15414 0.507691 9.4336 0.871637C9.98365 1.58796 10.4758 2.70801 10.8372 4.25048C10.9798 4.38322 11.1194 4.52128 11.2617 4.66363C12.1744 5.57629 12.897 6.50604 13.3388 7.30105C13.5597 7.69856 13.7153 8.0648 13.7802 8.39904C13.8436 8.72521 13.825 9.0679 13.5935 9.31591C13.5891 9.3208 13.5812 9.32823 13.5765 9.33294C13.5763 9.3331 13.5765 9.33837 13.5765 9.33855L7.21496 15.6944C6.96633 15.9429 6.60965 15.9628 6.27547 15.8981C5.94119 15.8335 5.58046 15.6831 5.18314 15.4624C4.38852 15.0208 3.45834 14.2978 2.54572 13.3852C1.63307 12.4726 0.910367 11.5426 0.468603 10.7478C0.247739 10.3504 0.0977618 9.9895 0.0328156 9.6555C-0.0305549 9.32957 -0.018022 8.9806 0.213926 8.73295C0.21954 8.72662 0.230407 8.72191 0.236565 8.71593L6.51883 2.43367C6.61637 1.26612 6.90928 0.477948 7.50927 0.135833C7.67234 0.0428507 7.86114 -3.98165e-05 8.04695 2.77343e-08L8.04698 4.42441e-05ZM8.03575 0.713166C7.9781 0.714253 7.92779 0.732083 7.87161 0.764103C7.67971 0.873532 7.40873 1.30996 7.283 2.12243C7.36639 2.12576 7.44941 2.13475 7.53203 2.15073C7.86631 2.2154 8.23269 2.36574 8.63003 2.58653C9.01393 2.79987 9.42844 3.08433 9.85818 3.4185C9.55545 2.46373 9.19763 1.75749 8.85642 1.31309C8.62706 1.0144 8.40529 0.835854 8.2395 0.764103C8.15661 0.728229 8.0934 0.712081 8.03575 0.713166ZM7.23773 2.84121C7.23139 2.84116 7.22088 2.84674 7.21509 2.84687C7.20676 3.05818 7.20821 3.28364 7.21509 3.52603C7.27619 3.67968 7.35554 3.85019 7.45846 4.03541C7.85272 4.7449 8.5436 5.64122 9.41672 6.51435C10.2898 7.38744 11.1857 8.07242 11.8957 8.46695C12.2507 8.66421 12.5586 8.78753 12.7729 8.82917C12.9845 8.87026 13.0537 8.83098 13.0616 8.82355C13.0686 8.81595 13.1084 8.74672 13.0672 8.53491C13.0255 8.3206 12.9022 8.00699 12.705 7.652C12.3104 6.94197 11.6254 6.0518 10.7524 5.17871C9.87922 4.30558 8.98291 3.61471 8.27341 3.22046C7.91866 3.02333 7.61011 2.90529 7.39614 2.86389C7.32933 2.85096 7.27868 2.84167 7.23767 2.84126L7.23773 2.84121ZM7.64522 7.75384C7.61147 7.75384 7.5768 7.75384 7.54337 7.75945C7.51593 7.76996 7.48764 7.77847 7.45846 7.78209C7.37977 7.80872 7.31144 7.84986 7.24906 7.91225C7.03425 8.12707 7.03425 8.46716 7.24906 8.68197C7.46332 8.89447 7.80449 8.89449 8.01878 8.68197C8.23296 8.46714 8.23336 8.12685 8.01878 7.91225C7.99562 7.88909 7.97608 7.87404 7.95087 7.85566C7.861 7.79131 7.75154 7.75639 7.64522 7.75378V7.75384ZM10.3959 8.33678C10.2492 8.61407 10.0361 8.78972 9.89213 8.88578C9.78075 8.96011 9.72156 9.00611 9.6997 9.03858C9.67828 9.07042 9.657 9.10477 9.67141 9.26497C9.75002 9.76128 10.0411 9.86319 10.3562 10.295C10.5149 10.5124 10.6353 10.8228 10.6166 11.2006C10.6148 11.2243 10.6187 11.2499 10.6166 11.2742L12.405 9.48003C12.1365 9.39978 11.8465 9.27163 11.5391 9.10085C11.1798 8.90121 10.7962 8.64265 10.3959 8.33678Z" fill="#646464"/>
</svg>
