<svg width="16" height="16" viewBox="0 0 16 16" fill="none" xmlns="http://www.w3.org/2000/svg">
<path d="M10.7578 12.4258C10.439 12.1072 9.92327 12.1072 9.60468 12.4258L8.81525 13.2155V10.6931C8.81525 10.2424 8.4499 9.8776 7.99973 9.8776C7.54956 9.8776 7.18421 10.2424 7.18421 10.6931V13.2161L6.39424 12.4261C6.07564 12.1075 5.55996 12.1075 5.24136 12.4261C4.92249 12.7447 4.92249 13.2612 5.24136 13.5793L7.42288 15.7602C7.46067 15.7986 7.50226 15.832 7.54684 15.8622C7.55717 15.8684 7.56804 15.8728 7.57837 15.8793C7.61317 15.9 7.64905 15.9206 7.68711 15.9367C7.70179 15.9429 7.71837 15.9456 7.73387 15.9516C7.76812 15.9633 7.80292 15.9761 7.83934 15.9834C7.89208 15.9946 7.94536 16 8.00027 16C8.05518 16 8.10846 15.9946 8.1612 15.9834C8.19844 15.9761 8.23324 15.9633 8.26749 15.9511C8.28271 15.9454 8.29902 15.9426 8.3137 15.9367C8.3523 15.9206 8.38846 15.8994 8.42407 15.8777C8.43359 15.872 8.44391 15.8682 8.4537 15.8616C8.49828 15.8315 8.5396 15.798 8.57766 15.7597L10.7589 13.5787C11.0764 13.2607 11.0764 12.7439 10.7578 12.4258ZM6.39369 3.57416L7.18366 2.78419V5.30769C7.18366 5.7584 7.54902 6.12321 7.99918 6.12321C8.44935 6.12321 8.81471 5.7584 8.81471 5.30769V2.78419L9.60413 3.57416C9.76343 3.73346 9.9722 3.81311 10.181 3.81311C10.3898 3.81311 10.5985 3.73346 10.7578 3.57416C11.0764 3.25611 11.0764 2.73961 10.7578 2.42129L8.57657 0.240307C8.53906 0.201978 8.4972 0.167998 8.45261 0.138367C8.44283 0.132115 8.4325 0.128309 8.42271 0.121785C8.38737 0.100037 8.35095 0.0799216 8.31262 0.0633393C8.29767 0.057087 8.28163 0.0538245 8.2664 0.0489314C8.23215 0.0372423 8.19736 0.0239222 8.16011 0.0165825C8.10765 0.00543704 8.0541 0 7.99918 0C7.94427 0 7.89126 0.00543704 7.83825 0.0165825C7.80183 0.0239222 7.76703 0.0366989 7.73278 0.048388C7.71729 0.0538248 7.7007 0.0568152 7.68575 0.0633393C7.64769 0.0793779 7.61208 0.0994938 7.57729 0.120697C7.56696 0.12695 7.55608 0.131299 7.54575 0.137823C7.50117 0.167454 7.45985 0.201978 7.42179 0.239763L5.24027 2.42074C4.9214 2.73852 4.9214 3.25502 5.24027 3.57362C5.55887 3.89222 6.0751 3.89276 6.39369 3.57416ZM13.215 7.18828H10.6923C10.2421 7.18828 9.87679 7.55309 9.87679 8.00381C9.87679 8.45452 10.2421 8.81933 10.6923 8.81933H13.215L12.4253 9.6093C12.1067 9.92789 12.1067 10.4444 12.4253 10.7624C12.5846 10.9217 12.7934 11.0008 13.0021 11.0008C13.2109 11.0008 13.4197 10.9217 13.579 10.7624L15.76 8.58038C15.8361 8.50508 15.8964 8.41429 15.9377 8.31343C15.9394 8.30908 15.9399 8.30501 15.9416 8.3012C15.9777 8.20877 15.9992 8.10874 15.9992 8.00408C15.9992 7.89888 15.9777 7.79911 15.9416 7.70668C15.9399 7.70288 15.9394 7.69826 15.9377 7.69445C15.8964 7.5936 15.8355 7.5028 15.76 7.42696L13.579 5.24598C13.2604 4.92738 12.7444 4.92738 12.4258 5.24598C12.1072 5.56404 12.1072 6.08053 12.4258 6.39913L13.215 7.18828ZM2.78419 8.81933H5.3066C5.75677 8.81933 6.12212 8.45452 6.12212 8.00381C6.12212 7.55309 5.75677 7.18828 5.3066 7.18828H2.78419L3.57335 6.39886C3.89194 6.0808 3.89194 5.56376 3.57335 5.24571C3.25475 4.92711 2.73907 4.92711 2.42047 5.24571L0.23922 7.42669C0.163104 7.50253 0.102756 7.59333 0.061436 7.69364C0.0598049 7.69799 0.0592612 7.70261 0.0576302 7.70641C0.0217472 7.79884 0 7.89806 0 8.00326C0 8.10846 0.0217472 8.20796 0.0576302 8.30038C0.0592612 8.30419 0.0598049 8.30827 0.061436 8.31207C0.102756 8.41293 0.163648 8.50426 0.23922 8.57956L2.42047 10.7616C2.57977 10.9209 2.78854 11 2.99732 11C3.20609 11 3.41459 10.9209 3.57389 10.7616C3.89276 10.4436 3.89276 9.92708 3.57389 9.60848L2.78419 8.81933Z" fill="#646464"/>
</svg>
