<svg width="16" height="16" viewBox="0 0 16 16" fill="none" xmlns="http://www.w3.org/2000/svg">
<path d="M8.7898 16C8.64211 16 8.50574 15.9092 8.45031 15.766C8.38577 15.5991 8.44995 15.4096 8.60219 15.3174C10.1775 14.3631 11.7104 12.2275 11.4402 10.4413C11.2495 9.18098 10.1583 8.23109 8.27473 7.67804V9.95423C8.27473 10.0882 8.20253 10.2114 8.08621 10.2761C7.96989 10.3409 7.82786 10.3367 7.71555 10.2652L0.17029 5.47205C0.0643601 5.40478 0 5.28733 0 5.16106C0 5.03479 0.0643601 4.91734 0.17029 4.85007L7.71573 0.0567209C7.82804 -0.0147777 7.97007 -0.0190052 8.08639 0.0458766C8.20272 0.110575 8.27492 0.233722 8.27492 0.367713V2.93027C11.3536 3.12932 14.2755 4.83426 15.4663 7.15916C16.1296 8.45441 16.1781 9.86711 15.5925 11.2386C14.4247 13.9736 11.0973 15.9188 8.7898 16Z" fill="#646464"/>
</svg>
